<svg width="204" height="207" viewBox="0 0 204 207" fill="none" xmlns="http://www.w3.org/2000/svg">
<path d="M188.5 91.5C189.833 89.3333 194 85.4 200 87C207.5 89 188 5.5 103 0.500001C73.3333 8.09319e-07 11.4 17.5 1 91.5C0.166668 104.5 4.1 128.5 26.5 120.5C31.6667 118.667 43.2 110.6 48 93C52.8 75.4 61.3333 67.3333 65 65.5C69 63.3333 79 62.1 87 74.5C89.3333 77.6667 94.9 89.9 98.5 113.5C102.1 137.1 114 149.667 119.5 153C125.5 156.833 141.7 161.8 158.5 151C163.167 147.5 173.3 137.1 176.5 123.5C178 118.167 184.6 108.6 199 113L204 120V94L199 100.5H185C181.5 100.333 173.4 101.9 169 109.5C163.5 119 166 121 157 132.5C153.333 138.5 142.4 148.6 128 141C124.667 139 117.2 131.7 114 118.5L110.5 97.5C109.667 93.6667 107.9 85.9 107.5 85.5C107 85 106 79 100.5 69.5C96.1 61.9 87.6667 55.6667 84 53.5C79 51 66.9 47.5 58.5 53.5C54.3333 55.8333 44.6 63.6 39 76L30.5 98.5C29 102 24.9 108.7 20.5 107.5C16.1 106.3 14.6667 102 14.5 100C13.6667 95.6667 14 83.2 22 68C25 61.6667 34.5 46 48.5 34C53.8333 29.5 69.9 19.6 91.5 16C118.667 13.3333 176.1 24.7 188.5 91.5Z" fill="url(#paint0_linear_36_42)"/>
<path d="M3.5 128.5C5.5 130.833 11.7 135.2 20.5 134C27.1667 154 53 193.6 103 192C125.667 191.5 174.5 177.1 188.5 123.5L201 127.5C194.5 153 165.8 204.4 103 206C40.2 207.6 10.5 155 3.5 128.5Z" fill="url(#paint1_linear_36_42)"/>
<defs>
<linearGradient id="paint0_linear_36_42" x1="102.449" y1="0.489685" x2="102.449" y2="206.036" gradientUnits="userSpaceOnUse">
<stop stop-color="#A066B6"/>
<stop offset="1" stop-color="#495CEA"/>
</linearGradient>
<linearGradient id="paint1_linear_36_42" x1="102.449" y1="0.489685" x2="102.449" y2="206.036" gradientUnits="userSpaceOnUse">
<stop stop-color="#A066B6"/>
<stop offset="1" stop-color="#495CEA"/>
</linearGradient>
</defs>
</svg>
